<svg xmlns="http://www.w3.org/2000/svg" xmlns:xlink="http://www.w3.org/1999/xlink" width="500" zoomAndPan="magnify" viewBox="0 0 375 374.999991" height="500" preserveAspectRatio="xMidYMid meet" version="1.0"><defs><g/><clipPath id="90cee8d96a"><path d="M 142 90.699219 L 180 90.699219 L 180 134 L 142 134 Z M 142 90.699219 " clip-rule="nonzero"/></clipPath><clipPath id="548db8f54d"><path d="M 222 120 L 250.027344 120 L 250.027344 149 L 222 149 Z M 222 120 " clip-rule="nonzero"/></clipPath><clipPath id="e58657d625"><path d="M 155 196 L 167 196 L 167 207.699219 L 155 207.699219 Z M 155 196 " clip-rule="nonzero"/></clipPath><clipPath id="354b7da85f"><path d="M 124.777344 129 L 188 129 L 188 191 L 124.777344 191 Z M 124.777344 129 " clip-rule="nonzero"/></clipPath></defs><path fill="#737373" d="M 178.679688 135.5625 C 181.355469 136.984375 186.304688 135.765625 189.558594 136.636719 C 190.925781 139.546875 190.558594 144.308594 190.539062 147.917969 C 190.480469 159.699219 188.589844 158.203125 210.105469 158.199219 C 215.613281 158.195312 216.542969 156.25 216.488281 150.777344 C 216.3125 132.335938 218.0625 132.585938 207.265625 132.558594 C 202.863281 132.546875 197.785156 133.078125 193.738281 131.890625 C 193.023438 128.574219 193.914062 124.53125 192.988281 121.746094 C 191.230469 121.125 181.140625 120.875 179.527344 121.90625 C 177.605469 123.136719 177.359375 133.429688 178.679688 135.5625 Z M 178.679688 135.5625 " fill-opacity="1" fill-rule="evenodd"/><g clip-path="url(#90cee8d96a)"><path fill="#737373" d="M 157.351562 123.875 C 157.753906 128.117188 156.492188 130.964844 158.054688 132.378906 C 159.871094 133.886719 167.699219 133.203125 169.886719 131.972656 C 171.375 129.863281 172.050781 121.273438 170.582031 119.777344 C 169.355469 118.3125 167.167969 119.152344 164.578125 118.929688 C 164.148438 116 164.972656 106.835938 166.273438 104.542969 C 169.6875 98.519531 181.476562 108.648438 179.710938 90.753906 C 176.402344 90.5625 172.78125 91.273438 169.691406 91.929688 C 164.644531 93 166.125 93.851562 164.945312 98.21875 C 163.886719 102.128906 157.3125 101.425781 149.378906 104.214844 C 144.160156 106.050781 144.121094 113.140625 142.648438 119.042969 C 140.289062 128.480469 146.480469 123.027344 157.351562 123.875 Z M 157.351562 123.875 " fill-opacity="1" fill-rule="evenodd"/></g><g clip-path="url(#548db8f54d)"><path fill="#3da0ad" d="M 231.324219 135.667969 C 229.785156 137.089844 226.125 135.636719 223.398438 136.734375 C 222.550781 138.832031 222.164062 145.980469 223.921875 147.746094 C 225.6875 149.261719 231.695312 148.839844 234.390625 148.308594 C 235.355469 145.429688 234.648438 143.246094 234.871094 140.207031 C 238.292969 138.609375 248.898438 141.753906 249.8125 138.179688 C 250.53125 135.367188 249.347656 124.390625 247.914062 123.144531 C 246.585938 121.992188 235.945312 120.101562 233.601562 120.867188 C 231.058594 121.691406 231.957031 125.199219 232.140625 127.984375 C 232.386719 131.730469 233.050781 134.285156 231.324219 135.667969 Z M 231.324219 135.667969 " fill-opacity="1" fill-rule="evenodd"/></g><path fill="#3da0ad" d="M 201.023438 93.722656 C 199.25 92.675781 196.097656 93.050781 193.625 93.089844 C 190.632812 93.140625 187.859375 92.625 186.4375 94.652344 C 184.542969 97.214844 187.125 102.234375 183.398438 103.625 L 178.855469 104.25 C 176.050781 104.394531 174.488281 104.0625 173.316406 106.046875 C 172.242188 107.449219 171.640625 114.625 172.601562 116.539062 C 174.644531 117.640625 183.4375 117.179688 185.71875 116.027344 C 187.269531 113.824219 186.667969 108.992188 187.402344 106.269531 C 189.980469 105.234375 190.957031 105.273438 194.507812 105.394531 C 195.996094 105.527344 197.082031 105.710938 198.1875 106.273438 C 200.578125 115.222656 195.550781 125.734375 202.445312 126.988281 C 206.117188 127.65625 224.25 128.152344 225.851562 126.136719 C 227.410156 124.175781 227.003906 106.566406 224.261719 104.140625 C 222.214844 102.328125 210.882812 102.4375 207.234375 102.332031 C 199.414062 102.105469 202.5 100.195312 201.691406 95.546875 L 201.230469 94.144531 C 201.191406 94.039062 201.109375 93.855469 201.023438 93.722656 Z M 201.023438 93.722656 " fill-opacity="1" fill-rule="evenodd"/><g clip-path="url(#e58657d625)"><path fill="#3da0ad" d="M 156.558594 206.128906 C 158.710938 207.121094 163.785156 208.042969 166.757812 207.53125 C 167.117188 205.066406 166.453125 199.390625 165.839844 197.390625 C 163.445312 196.601562 158.632812 196.152344 155.578125 196.367188 C 155.085938 199.207031 155.925781 203.492188 156.558594 206.128906 Z M 156.558594 206.128906 " fill-opacity="1" fill-rule="evenodd"/></g><path fill="#3da0ad" d="M 238.429688 114.925781 L 237.632812 107.445312 C 235.292969 106.183594 231.65625 106.089844 228.824219 106.320312 C 228.441406 114.621094 229.601562 115.824219 238.429688 114.925781 Z M 238.429688 114.925781 " fill-opacity="1" fill-rule="evenodd"/><g clip-path="url(#354b7da85f)"><path fill="#3da0ad" d="M 138.027344 154.179688 C 139.546875 156.964844 137.671875 161.996094 139.078125 165.042969 C 141.039062 166.429688 149.226562 166.828125 150.648438 165.207031 C 152.8125 163.25 151.101562 155.691406 152.320312 152.734375 C 154.484375 152.585938 157.441406 152.160156 158.683594 153.363281 C 159.984375 154.867188 159.953125 170.984375 158.546875 172.972656 C 154.925781 176.476562 147.601562 169.695312 147.5 177.480469 C 147.472656 179.648438 147.933594 187.101562 148.65625 188.472656 C 149.929688 190.894531 159.40625 191.394531 161.855469 190.164062 C 161.949219 190.035156 162.054688 189.660156 162.082031 189.738281 L 162.53125 184.359375 C 161.992188 175.003906 163.234375 178.683594 181.722656 178.554688 C 189.105469 178.503906 187.414062 173.558594 187.367188 163.863281 C 187.335938 157.539062 188.949219 149.84375 182.246094 149.136719 C 177.007812 148.582031 166.734375 150.777344 162.824219 148.589844 C 161.027344 145.515625 163.671875 140.613281 161.617188 138.445312 C 160.132812 136.984375 151.019531 138.042969 150.0625 139.007812 C 147.8125 142.25 150.707031 147.023438 147.65625 149.152344 C 146.042969 149.976562 143.5 150.0625 141.90625 149.109375 L 141.125 147.324219 C 140.457031 144.207031 142.265625 133.386719 142.011719 131.390625 C 141.546875 127.730469 138.136719 129.308594 135.398438 129.996094 C 125.613281 132.453125 127.027344 131.164062 125.074219 148.160156 C 124.5625 152.605469 124.175781 153.980469 128.796875 153.871094 C 131.710938 153.800781 135.574219 153 138.027344 154.179688 Z M 138.027344 154.179688 " fill-opacity="1" fill-rule="evenodd"/></g><g fill="#3da0ad" fill-opacity="1"><g transform="translate(129.206944, 242.169269)"><g><path d="M 0.71875 -15.1875 L 0.71875 -18.640625 L 15.4375 -18.640625 L 15.4375 -15.1875 L 10.328125 -15.1875 L 10.328125 0 L 5.796875 0 L 5.796875 -15.1875 Z M 0.71875 -15.1875 "/></g></g></g><g fill="#3da0ad" fill-opacity="1"><g transform="translate(144.694788, 242.169269)"><g><path d="M 10.890625 -4.640625 C 11.492188 -5.285156 11.796875 -6.207031 11.796875 -7.40625 C 11.796875 -8.613281 11.484375 -9.53125 10.859375 -10.15625 C 10.242188 -10.789062 9.507812 -11.109375 8.65625 -11.109375 C 7.8125 -11.109375 7.082031 -10.789062 6.46875 -10.15625 C 5.851562 -9.53125 5.546875 -8.613281 5.546875 -7.40625 C 5.546875 -6.207031 5.859375 -5.285156 6.484375 -4.640625 C 7.117188 -4.003906 7.859375 -3.6875 8.703125 -3.6875 C 9.554688 -3.6875 10.285156 -4.003906 10.890625 -4.640625 Z M 3.171875 -1.90625 C 1.671875 -3.3125 0.921875 -5.15625 0.921875 -7.4375 C 0.921875 -9.71875 1.664062 -11.546875 3.15625 -12.921875 C 4.644531 -14.296875 6.488281 -14.984375 8.6875 -14.984375 C 10.882812 -14.984375 12.722656 -14.296875 14.203125 -12.921875 C 15.679688 -11.546875 16.421875 -9.71875 16.421875 -7.4375 C 16.421875 -5.15625 15.679688 -3.3125 14.203125 -1.90625 C 12.734375 -0.507812 10.898438 0.1875 8.703125 0.1875 C 6.515625 0.1875 4.671875 -0.507812 3.171875 -1.90625 Z M 3.171875 -1.90625 "/></g></g></g><g fill="#3da0ad" fill-opacity="1"><g transform="translate(161.378109, 242.169269)"><g><path d="M 6.53125 -3.453125 L 8.546875 -3.453125 C 10.285156 -3.453125 11.648438 -3.984375 12.640625 -5.046875 C 13.628906 -6.109375 14.125 -7.53125 14.125 -9.3125 C 14.125 -11.101562 13.628906 -12.53125 12.640625 -13.59375 C 11.648438 -14.65625 10.285156 -15.1875 8.546875 -15.1875 L 6.53125 -15.1875 Z M 8.546875 -18.640625 C 11.523438 -18.640625 13.96875 -17.773438 15.875 -16.046875 C 17.789062 -14.328125 18.75 -12.085938 18.75 -9.328125 C 18.75 -6.578125 17.789062 -4.332031 15.875 -2.59375 C 13.96875 -0.863281 11.523438 0 8.546875 0 L 1.984375 0 L 1.984375 -18.640625 Z M 8.546875 -18.640625 "/></g></g></g><g fill="#3da0ad" fill-opacity="1"><g transform="translate(180.346127, 242.169269)"><g><path d="M 10.890625 -4.640625 C 11.492188 -5.285156 11.796875 -6.207031 11.796875 -7.40625 C 11.796875 -8.613281 11.484375 -9.53125 10.859375 -10.15625 C 10.242188 -10.789062 9.507812 -11.109375 8.65625 -11.109375 C 7.8125 -11.109375 7.082031 -10.789062 6.46875 -10.15625 C 5.851562 -9.53125 5.546875 -8.613281 5.546875 -7.40625 C 5.546875 -6.207031 5.859375 -5.285156 6.484375 -4.640625 C 7.117188 -4.003906 7.859375 -3.6875 8.703125 -3.6875 C 9.554688 -3.6875 10.285156 -4.003906 10.890625 -4.640625 Z M 3.171875 -1.90625 C 1.671875 -3.3125 0.921875 -5.15625 0.921875 -7.4375 C 0.921875 -9.71875 1.664062 -11.546875 3.15625 -12.921875 C 4.644531 -14.296875 6.488281 -14.984375 8.6875 -14.984375 C 10.882812 -14.984375 12.722656 -14.296875 14.203125 -12.921875 C 15.679688 -11.546875 16.421875 -9.71875 16.421875 -7.4375 C 16.421875 -5.15625 15.679688 -3.3125 14.203125 -1.90625 C 12.734375 -0.507812 10.898438 0.1875 8.703125 0.1875 C 6.515625 0.1875 4.671875 -0.507812 3.171875 -1.90625 Z M 3.171875 -1.90625 "/></g></g></g><g fill="#737373" fill-opacity="1"><g transform="translate(197.024278, 242.169269)"><g><path d="M 13.84375 0 L 12.796875 -3.140625 L 6.109375 -3.140625 L 5.078125 0 L 0.234375 0 L 6.71875 -18.703125 L 12.25 -18.703125 L 18.703125 0 Z M 7.25 -6.59375 L 11.65625 -6.59375 L 9.453125 -13.234375 Z M 7.25 -6.59375 "/></g></g></g><g fill="#737373" fill-opacity="1"><g transform="translate(215.301568, 242.169269)"><g><path d="M 12.03125 -4.6875 C 12.6875 -5.3125 13.015625 -6.207031 13.015625 -7.375 C 13.015625 -8.550781 12.6875 -9.457031 12.03125 -10.09375 C 11.375 -10.726562 10.617188 -11.046875 9.765625 -11.046875 C 8.921875 -11.046875 8.171875 -10.726562 7.515625 -10.09375 C 6.859375 -9.46875 6.53125 -8.570312 6.53125 -7.40625 C 6.53125 -6.238281 6.859375 -5.335938 7.515625 -4.703125 C 8.171875 -4.066406 8.921875 -3.75 9.765625 -3.75 C 10.617188 -3.75 11.375 -4.0625 12.03125 -4.6875 Z M 6.53125 -12.875 C 7.539062 -14.28125 8.988281 -14.984375 10.875 -14.984375 C 12.757812 -14.984375 14.359375 -14.269531 15.671875 -12.84375 C 16.984375 -11.414062 17.640625 -9.59375 17.640625 -7.375 C 17.640625 -5.164062 16.984375 -3.351562 15.671875 -1.9375 C 14.359375 -0.519531 12.769531 0.1875 10.90625 0.1875 C 9.050781 0.1875 7.59375 -0.59375 6.53125 -2.15625 L 6.53125 7.0625 L 1.984375 7.0625 L 1.984375 -14.828125 L 6.53125 -14.828125 Z M 6.53125 -12.875 "/></g></g></g><g fill="#737373" fill-opacity="1"><g transform="translate(233.180366, 242.169269)"><g><path d="M 12.03125 -4.6875 C 12.6875 -5.3125 13.015625 -6.207031 13.015625 -7.375 C 13.015625 -8.550781 12.6875 -9.457031 12.03125 -10.09375 C 11.375 -10.726562 10.617188 -11.046875 9.765625 -11.046875 C 8.921875 -11.046875 8.171875 -10.726562 7.515625 -10.09375 C 6.859375 -9.46875 6.53125 -8.570312 6.53125 -7.40625 C 6.53125 -6.238281 6.859375 -5.335938 7.515625 -4.703125 C 8.171875 -4.066406 8.921875 -3.75 9.765625 -3.75 C 10.617188 -3.75 11.375 -4.0625 12.03125 -4.6875 Z M 6.53125 -12.875 C 7.539062 -14.28125 8.988281 -14.984375 10.875 -14.984375 C 12.757812 -14.984375 14.359375 -14.269531 15.671875 -12.84375 C 16.984375 -11.414062 17.640625 -9.59375 17.640625 -7.375 C 17.640625 -5.164062 16.984375 -3.351562 15.671875 -1.9375 C 14.359375 -0.519531 12.769531 0.1875 10.90625 0.1875 C 9.050781 0.1875 7.59375 -0.59375 6.53125 -2.15625 L 6.53125 7.0625 L 1.984375 7.0625 L 1.984375 -14.828125 L 6.53125 -14.828125 Z M 6.53125 -12.875 "/></g></g></g><g fill="#737373" fill-opacity="1"><g transform="translate(251.058847, 242.169269)"><g/></g></g></svg>